<svg width="114" height="40" viewBox="0 0 114 40" fill="none" xmlns="http://www.w3.org/2000/svg">
<path d="M14.3438 11.9375V29H10.2305V15.1133H4.10156V29H0V11.9375H14.3438Z" fill="black"/>
<path d="M23.7305 23.2109H19.4883V20.0352H23.7305C24.3086 20.0352 24.7773 19.9375 25.1367 19.7422C25.4961 19.5469 25.7578 19.2773 25.9219 18.9336C26.0938 18.582 26.1797 18.1875 26.1797 17.75C26.1797 17.2812 26.0938 16.8477 25.9219 16.4492C25.7578 16.0508 25.4961 15.7305 25.1367 15.4883C24.7773 15.2383 24.3086 15.1133 23.7305 15.1133H21.0352V29H16.9219V11.9375H23.7305C25.0977 11.9375 26.2734 12.1875 27.2578 12.6875C28.25 13.1875 29.0117 13.875 29.543 14.75C30.0742 15.6172 30.3398 16.6094 30.3398 17.7266C30.3398 18.8281 30.0742 19.7891 29.543 20.6094C29.0117 21.4297 28.25 22.0703 27.2578 22.5312C26.2734 22.9844 25.0977 23.2109 23.7305 23.2109Z" fill="black"/>
<path d="M85.7227 12.6875H89.9883C91.0195 12.6875 91.9688 12.8555 92.8359 13.1914C93.7031 13.5273 94.457 14.0078 95.0977 14.6328C95.7383 15.2578 96.2344 16.0117 96.5859 16.8945C96.9375 17.7773 97.1133 18.7695 97.1133 19.8711C97.1133 20.9336 96.9375 21.8945 96.5859 22.7539C96.2344 23.6133 95.7383 24.3477 95.0977 24.957C94.457 25.5664 93.7031 26.0352 92.8359 26.3633C91.9688 26.6836 91.0195 26.8438 89.9883 26.8438H85.7227C84.6836 26.8438 83.7266 26.6836 82.8516 26.3633C81.9766 26.0352 81.2148 25.5703 80.5664 24.9688C79.9258 24.3594 79.4258 23.6289 79.0664 22.7773C78.7148 21.918 78.5391 20.957 78.5391 19.8945C78.5391 18.793 78.7148 17.8008 79.0664 16.918C79.4258 16.0352 79.9258 15.2773 80.5664 14.6445C81.2148 14.0117 81.9766 13.5273 82.8516 13.1914C83.7266 12.8555 84.6836 12.6875 85.7227 12.6875ZM85.7227 15.9922C85.0977 15.9922 84.5352 16.1328 84.0352 16.4141C83.5352 16.6953 83.1406 17.125 82.8516 17.7031C82.5625 18.2734 82.418 19.0039 82.418 19.8945C82.418 20.5117 82.5039 21.0508 82.6758 21.5117C82.8477 21.9727 83.0859 22.3516 83.3906 22.6484C83.6953 22.9453 84.0469 23.168 84.4453 23.3164C84.8438 23.4648 85.2695 23.5391 85.7227 23.5391H90.0117C90.6211 23.5391 91.168 23.4062 91.6523 23.1406C92.1367 22.8672 92.5195 22.457 92.8008 21.9102C93.0898 21.3633 93.2344 20.6836 93.2344 19.8711C93.2344 19.207 93.1523 18.6328 92.9883 18.1484C92.8242 17.6641 92.5938 17.2617 92.2969 16.9414C92.0078 16.6211 91.668 16.3828 91.2773 16.2266C90.8867 16.0703 90.4648 15.9922 90.0117 15.9922H85.7227ZM89.8242 10.5312V19.7656V29H85.875V10.5312H89.8242Z" fill="black"/>
<path d="M103.258 22.707L106.645 11.9375H113.5V29H109.387L111.273 18.2422L106.645 29H99.1445V11.9375H103.258V22.707Z" fill="black"/>
<path d="M37.5 13L42.3209 14.7547L44.8861 19.1976L43.9952 24.25L40.0652 27.5477H34.9348L31.0048 24.25L30.1139 19.1976L32.6791 14.7547L37.5 13Z" fill="#1677CF"/>
<path d="M37.5 15L41.0353 16.2868L42.9164 19.5449L42.2631 23.25L39.3811 25.6683H35.6189L32.7369 23.25L32.0836 19.5449L33.9647 16.2868L37.5 15Z" fill="#3F99EB"/>
<path d="M37.5 17L39.7498 17.8188L40.9468 19.8922L40.5311 22.25L38.6971 23.7889H36.3029L34.4689 22.25L34.0532 19.8922L35.2502 17.8188L37.5 17Z" fill="#74B3EC"/>
<path d="M40 16L40.1588 17.2528L40.8135 16.1729L40.449 17.382L41.4863 16.6617L40.6616 17.618L41.9021 17.382L40.7597 17.9201L41.989 18.2091L40.7265 18.2361L41.7321 19L40.5677 18.5112L41.1756 19.618L40.3107 18.6979L40.4158 19.9563L40 18.7639L39.5842 19.9563L39.6893 18.6979L38.8244 19.618L39.4323 18.5112L38.2679 19L39.2735 18.2361L38.011 18.2091L39.2403 17.9201L38.0979 17.382L39.3384 17.618L38.5137 16.6617L39.551 17.382L39.1865 16.1729L39.8412 17.2528L40 16Z" fill="#D9D9D9"/>
<path d="M35 11.3558C37.0185 7.35114 40.3814 4.09917 44.5583 2.11263C48.7353 0.12608 53.4888 -0.48204 58.0694 0.384136C62.65 1.25031 66.7971 3.54152 69.8569 6.89653C72.9168 10.2515 74.7153 14.4795 74.9689 18.9139C75.2226 23.3482 73.9169 27.7367 71.2578 31.3875C68.5986 35.0383 64.7373 37.7436 60.2825 39.0771C55.8277 40.4106 51.0329 40.2962 46.654 38.7522C42.2751 37.2081 38.5612 34.3221 36.0978 30.5492L40.5 30.5492L45.3711 26.5L45.8686 24.781C46.985 26.4909 48.6682 27.7988 50.6527 28.4986C52.6373 29.1983 54.8103 29.2502 56.8292 28.6458C58.8481 28.0415 60.5981 26.8154 61.8032 25.1609C63.0084 23.5063 63.6001 21.5174 63.4852 19.5078C63.3702 17.4981 62.5551 15.582 61.1684 14.0615C59.7816 12.541 57.9021 11.5026 55.8262 11.11C53.7503 10.7175 51.596 10.9931 49.703 11.8934C47.8099 12.7937 46.2859 14.2675 45.3711 16.0824L44 13L38.5 10.5L35 11.3558Z" fill="#CA9C42"/>
</svg>
