<svg width="50" height="50" viewBox="0 0 50 50" fill="none" xmlns="http://www.w3.org/2000/svg">
<g clip-path="url(#clip0_30_188)">
<path fill-rule="evenodd" clip-rule="evenodd" d="M0 25C0 11.1929 11.1929 0 25 0C38.8071 0 50 11.1929 50 25C50 38.8071 38.8071 50 25 50C11.1929 50 0 38.8071 0 25ZM25.0012 11.6667C21.3801 11.6667 20.9256 11.6825 19.5034 11.7472C18.084 11.8122 17.1151 12.037 16.2673 12.3667C15.3903 12.7072 14.6465 13.1628 13.9053 13.9042C13.1636 14.6453 12.708 15.3892 12.3664 16.2658C12.0358 17.114 11.8108 18.0831 11.747 19.502C11.6833 20.9243 11.6667 21.379 11.6667 25.0001C11.6667 28.6212 11.6828 29.0744 11.7472 30.4966C11.8125 31.916 12.0372 32.8849 12.3667 33.7327C12.7075 34.6097 13.163 35.3535 13.9045 36.0947C14.6453 36.8364 15.3892 37.293 16.2656 37.6336C17.114 37.9633 18.0831 38.188 19.5023 38.253C20.9246 38.3178 21.3787 38.3336 24.9996 38.3336C28.621 38.3336 29.0741 38.3178 30.4964 38.253C31.9157 38.188 32.8857 37.9633 33.7342 37.6336C34.6108 37.293 35.3535 36.8364 36.0944 36.0947C36.836 35.3535 37.2917 34.6097 37.6333 33.733C37.9611 32.8849 38.1861 31.9157 38.2528 30.4969C38.3167 29.0746 38.3333 28.6212 38.3333 25.0001C38.3333 21.379 38.3167 20.9246 38.2528 19.5023C38.1861 18.0828 37.9611 17.114 37.6333 16.2661C37.2917 15.3892 36.836 14.6453 36.0944 13.9042C35.3527 13.1625 34.611 12.707 33.7333 12.3667C32.8832 12.037 31.9139 11.8122 30.4944 11.7472C29.0721 11.6825 28.6194 11.6667 24.9971 11.6667H25.0012Z" fill="black"/>
<path fill-rule="evenodd" clip-rule="evenodd" d="M23.805 14.0693C24.16 14.0687 24.5562 14.0693 25.0012 14.0693C28.5612 14.0693 28.9832 14.0821 30.389 14.1459C31.689 14.2054 32.3946 14.4226 32.8646 14.6051C33.4868 14.8468 33.9305 15.1356 34.3968 15.6023C34.8635 16.0689 35.1524 16.5134 35.3946 17.1357C35.5771 17.6051 35.7946 18.3107 35.8538 19.6107C35.9176 21.0162 35.9316 21.4385 35.9316 24.9969C35.9316 28.5552 35.9176 28.9775 35.8538 30.383C35.7943 31.683 35.5771 32.3886 35.3946 32.858C35.153 33.4803 34.8635 33.9233 34.3968 34.3898C33.9301 34.8564 33.4871 35.1453 32.8646 35.387C32.3951 35.5703 31.689 35.787 30.389 35.8464C28.9835 35.9103 28.5612 35.9241 25.0012 35.9241C21.4409 35.9241 21.0189 35.9103 19.6134 35.8464C18.3134 35.7864 17.6077 35.5691 17.1375 35.3866C16.5152 35.145 16.0708 34.8561 15.6041 34.3895C15.1374 33.9228 14.8486 33.4795 14.6064 32.857C14.4239 32.3875 14.2064 31.682 14.1472 30.382C14.0833 28.9763 14.0706 28.5541 14.0706 24.9935C14.0706 21.4329 14.0833 21.0129 14.1472 19.6074C14.2066 18.3074 14.4239 17.6018 14.6064 17.1318C14.8481 16.5096 15.1374 16.0651 15.6041 15.5984C16.0708 15.1318 16.5152 14.8429 17.1375 14.6006C17.6075 14.4173 18.3134 14.2006 19.6134 14.1409C20.8434 14.0854 21.32 14.0687 23.805 14.0659V14.0693ZM32.1185 16.2831C31.2351 16.2831 30.5185 16.999 30.5185 17.8826C30.5185 18.7659 31.2351 19.4826 32.1185 19.4826C33.0018 19.4826 33.7185 18.7659 33.7185 17.8826C33.7185 16.9993 33.0018 16.2831 32.1185 16.2831ZM25.0012 18.1526C21.2197 18.1526 18.1539 21.2185 18.1539 24.9999C18.1539 28.7813 21.2197 31.8458 25.0012 31.8458C28.7826 31.8458 31.8473 28.7813 31.8473 24.9999C31.8473 21.2185 28.7826 18.1526 25.0012 18.1526Z" fill="black"/>
<path fill-rule="evenodd" clip-rule="evenodd" d="M25.0014 20.5557C27.4558 20.5557 29.4458 22.5455 29.4458 25.0001C29.4458 27.4546 27.4558 29.4446 25.0014 29.4446C22.5466 29.4446 20.5569 27.4546 20.5569 25.0001C20.5569 22.5455 22.5466 20.5557 25.0014 20.5557Z" fill="black"/>
</g>
<defs>
<clipPath id="clip0_30_188">
<rect width="50" height="50" fill="white"/>
</clipPath>
</defs>
</svg>
