<svg width="70" height="70" viewBox="0 0 70 70" fill="none" xmlns="http://www.w3.org/2000/svg">
<path d="M35.2389 0C28.4352 0.0049177 21.7782 1.96322 16.0706 5.63878C10.363 9.31434 5.84843 14.5502 3.07137 20.7151C0.294297 26.8799 -0.626741 33.7105 0.41931 40.3832C1.46536 47.0559 4.43384 53.2858 8.9668 58.3217C9.65722 59.135 10.393 59.9091 11.1708 60.6406C11.6557 61.1 12.1626 61.5594 12.6916 61.9969C13.2206 62.4344 13.992 63.0032 14.6312 63.4407H13.1985C12.614 63.4407 12.0534 63.6712 11.6401 64.0815C11.2267 64.4917 10.9945 65.0482 10.9945 65.6283C10.9945 66.2085 11.2267 66.765 11.6401 67.1752C12.0534 67.5855 12.614 67.816 13.1985 67.816H19.8106C20.3952 67.816 20.9558 67.5855 21.3691 67.1752C21.7825 66.765 22.0147 66.2085 22.0147 65.6283V59.0655C22.0147 58.4853 21.7825 57.9289 21.3691 57.5186C20.9558 57.1084 20.3952 56.8779 19.8106 56.8779C19.2261 56.8779 18.6655 57.1084 18.2522 57.5186C17.8388 57.9289 17.6066 58.4853 17.6066 59.0655V60.0937C16.9454 59.6343 16.2621 59.153 15.5569 58.6061C14.8516 58.0592 14.6973 57.8623 14.3006 57.4686C13.9038 57.0748 12.912 56.1341 12.2508 55.4122C7.5422 50.1837 4.78403 43.5097 4.43717 36.5053C4.09031 29.501 6.17578 22.5907 10.3451 16.929C14.5144 11.2674 20.515 7.19744 27.3442 5.39922C34.1734 3.601 41.4175 4.18345 47.8661 7.04925C54.3146 9.91505 59.5769 14.8906 62.7738 21.1445C65.9706 27.3984 66.9082 34.5518 65.43 41.4094C63.9518 48.267 60.1473 54.4133 54.6522 58.8214C49.1571 63.2295 42.3043 65.6323 35.2389 65.6283C33.166 65.637 31.0977 65.4317 29.0676 65.0158C28.7781 64.9584 28.4801 64.9581 28.1906 65.0149C27.901 65.0718 27.6256 65.1847 27.38 65.3472C27.1344 65.5097 26.9235 65.7186 26.7592 65.962C26.595 66.2055 26.4806 66.4786 26.4227 66.7659C26.3649 67.0532 26.3645 67.349 26.4218 67.6364C26.4791 67.9238 26.5929 68.1972 26.7566 68.4409C26.9203 68.6847 27.1308 68.8941 27.3761 69.0571C27.6213 69.2201 27.8965 69.3336 28.186 69.391C32.9881 70.2919 37.9264 70.1923 42.6876 69.0985C47.4489 68.0046 51.9291 65.9405 55.844 63.037C59.7589 60.1334 63.023 56.454 65.4293 52.232C67.8355 48.01 69.3314 43.3377 69.8219 38.5115C70.3124 33.6853 69.7869 28.8105 68.2788 24.1966C66.7706 19.5826 64.3127 15.3302 61.0609 11.7091C57.8092 8.08798 53.8346 5.17724 49.3895 3.16155C44.9443 1.14587 40.1255 0.0692474 35.2389 0V0Z" fill="black"/>
<path d="M57.2792 35.0019C57.2792 30.6752 55.9865 26.4456 53.5647 22.8481C51.1429 19.2506 47.7007 16.4467 43.6733 14.791C39.646 13.1352 35.2144 12.702 30.939 13.5461C26.6636 14.3902 22.7364 16.4737 19.654 19.5331C16.5716 22.5925 14.4724 26.4905 13.622 30.734C12.7716 34.9776 13.208 39.3762 14.8762 43.3735C16.5444 47.3708 19.3694 50.7874 22.9939 53.1912C26.6184 55.595 30.8797 56.878 35.2388 56.878C41.0843 56.878 46.6903 54.5732 50.8237 50.4706C54.9571 46.368 57.2792 40.8038 57.2792 35.0019ZM17.6066 35.0019C17.6066 31.5405 18.6407 28.1569 20.5781 25.2789C22.5156 22.4009 25.2694 20.1577 28.4913 18.8331C31.7131 17.5085 35.2584 17.162 38.6787 17.8372C42.099 18.5125 45.2408 20.1793 47.7067 22.6269C50.1727 25.0744 51.852 28.1928 52.5323 31.5876C53.2127 34.9824 52.8635 38.5013 51.5289 41.6992C50.1944 44.897 47.9344 47.6303 45.0348 49.5533C42.1352 51.4763 38.7262 52.5028 35.2388 52.5028C30.5625 52.5028 26.0776 50.6589 22.7709 47.3769C19.4642 44.0948 17.6066 39.6434 17.6066 35.0019Z" fill="black"/>
<path d="M37.4428 45.9397V45.5459C38.9005 45.021 40.1259 44.0042 40.9049 42.6733C41.6838 41.3425 41.9667 39.7822 41.7041 38.2653C41.4415 36.7484 40.6502 35.3714 39.4683 34.3749C38.2865 33.3785 36.7894 32.826 35.2388 32.814C34.6543 32.814 34.0937 32.5836 33.6803 32.1733C33.267 31.763 33.0348 31.2066 33.0348 30.6264C33.0348 30.0462 33.267 29.4898 33.6803 29.0795C34.0937 28.6693 34.6543 28.4388 35.2388 28.4388H39.6469C40.2314 28.4388 40.792 28.2083 41.2054 27.7981C41.6187 27.3878 41.8509 26.8314 41.8509 26.2512C41.8509 25.671 41.6187 25.1146 41.2054 24.7043C40.792 24.2941 40.2314 24.0636 39.6469 24.0636H37.4428C37.4428 23.4834 37.2106 22.927 36.7973 22.5167C36.384 22.1065 35.8234 21.876 35.2388 21.876C34.6543 21.876 34.0937 22.1065 33.6803 22.5167C33.267 22.927 33.0348 23.4834 33.0348 24.0636V24.4574C31.5771 24.9823 30.3517 25.9991 29.5727 27.33C28.7938 28.6608 28.5109 30.2211 28.7735 31.738C29.0361 33.2549 29.8275 34.6319 31.0093 35.6284C32.1911 36.6248 33.6882 37.1773 35.2388 37.1893C35.8234 37.1893 36.384 37.4197 36.7973 37.83C37.2106 38.2403 37.4428 38.7967 37.4428 39.3769C37.4428 39.9571 37.2106 40.5135 36.7973 40.9237C36.384 41.334 35.8234 41.5645 35.2388 41.5645H30.8307C30.2462 41.5645 29.6856 41.795 29.2723 42.2052C28.8589 42.6155 28.6267 43.1719 28.6267 43.7521C28.6267 44.3323 28.8589 44.8887 29.2723 45.299C29.6856 45.7092 30.2462 45.9397 30.8307 45.9397H33.0348C33.0348 46.5199 33.267 47.0763 33.6803 47.4866C34.0937 47.8968 34.6543 48.1273 35.2388 48.1273C35.8234 48.1273 36.384 47.8968 36.7973 47.4866C37.2106 47.0763 37.4428 46.5199 37.4428 45.9397Z" fill="black"/>
</svg>
