<svg width="70" height="70" viewBox="0 0 70 70" fill="none" xmlns="http://www.w3.org/2000/svg">
<path d="M67.8125 1.09375H2.1875C1.58266 1.09375 1.09375 1.58375 1.09375 2.1875V50.3125C1.09375 50.9162 1.58266 51.4062 2.1875 51.4062H15.1156L13.1403 63.257C13.0725 63.6628 13.2387 64.073 13.5702 64.3169C13.9005 64.5619 14.3391 64.5991 14.7087 64.4153L22.9688 60.2853L31.2298 64.4153C31.3841 64.493 31.5525 64.5312 31.7188 64.5312C31.9484 64.5312 32.177 64.4591 32.3684 64.3169C32.6998 64.073 32.865 63.6628 32.7983 63.257L30.8219 51.4062H53.5938V57.9688H50.3125C49.7077 57.9688 49.2188 58.4588 49.2188 59.0625V62.3438H48.125C47.5202 62.3438 47.0312 62.8338 47.0312 63.4375V67.8125C47.0312 68.4163 47.5202 68.9062 48.125 68.9062H65.625C66.2298 68.9062 66.7188 68.4163 66.7188 67.8125V63.4375C66.7188 62.8338 66.2298 62.3438 65.625 62.3438H64.5312V59.0625C64.5312 58.4588 64.0423 57.9688 63.4375 57.9688H60.1562V51.4062H67.8125C68.4173 51.4062 68.9062 50.9162 68.9062 50.3125V2.1875C68.9062 1.58375 68.4173 1.09375 67.8125 1.09375ZM12.6536 39.0108C12.6525 39.0108 12.6536 39.0108 12.6536 39.0108C12.3047 39.9984 12.11 41.0266 12.0553 42.0744C10.7242 41.3109 9.84375 39.8803 9.84375 38.2812V14.2188C9.84375 11.8059 11.8059 9.84375 14.2188 9.84375H55.7812C58.1941 9.84375 60.1562 11.8059 60.1562 14.2188V38.2812C60.1562 39.0622 59.9441 39.8059 59.558 40.4688H52.5C51.8952 40.4688 51.4062 40.9588 51.4062 41.5625V42.6562H33.9062C33.9062 36.6253 28.9997 31.7188 22.9688 31.7188C18.3422 31.7188 14.1958 34.6489 12.6536 39.0108ZM59.0625 44.8438H54.6875H53.5938V42.6562H60.1562V44.8438H59.0625ZM14.7164 39.7392C15.9502 36.2502 19.2664 33.9062 22.9688 33.9062C27.7933 33.9062 31.7188 37.8317 31.7188 42.6562C31.7188 47.4808 27.7933 51.4062 22.9688 51.4062C18.1442 51.4062 14.2188 47.4808 14.2188 42.6562C14.2188 41.6555 14.3861 40.6744 14.7164 39.7392ZM23.4577 58.0836C23.1503 57.9294 22.7872 57.9294 22.4788 58.0836L15.6505 61.4983L17.2408 51.9553C18.9098 52.9878 20.8677 53.5938 22.9688 53.5938C25.0698 53.5938 27.0277 52.9878 28.6967 51.9564L30.287 61.4994L23.4577 58.0836ZM31.698 49.2188C32.6583 47.9445 33.3561 46.4625 33.6864 44.8438H51.4062V45.9375C51.4062 46.5412 51.8952 47.0312 52.5 47.0312H53.5938V49.2188H31.698ZM64.5312 66.7188H49.2188V64.5312H50.3125H63.4375H64.5312V66.7188ZM62.3438 62.3438H51.4062V60.1562H54.6875H59.0625H62.3438V62.3438ZM55.7812 57.9688V47.0312H57.9688V57.9688H55.7812ZM66.7188 49.2188H60.1562V47.0312H61.25C61.8548 47.0312 62.3438 46.5412 62.3438 45.9375V41.5625C62.3438 41.1939 62.1502 40.8844 61.8702 40.6853C62.1709 39.9263 62.3438 39.1191 62.3438 38.2812V14.2188C62.3438 10.5995 59.4005 7.65625 55.7812 7.65625H14.2188C10.5995 7.65625 7.65625 10.5995 7.65625 14.2188V38.2812C7.65625 41.1403 9.53422 43.6352 12.1997 44.5025C12.4994 46.2514 13.2136 47.857 14.2395 49.2188H3.28125V3.28125H66.7188V49.2188Z" fill="black"/>
<path d="M22.9688 49.2188C26.588 49.2188 29.5312 46.2755 29.5312 42.6562C29.5312 39.037 26.588 36.0938 22.9688 36.0938C19.3495 36.0938 16.4062 39.037 16.4062 42.6562C16.4062 46.2755 19.3495 49.2188 22.9688 49.2188ZM22.9688 38.2812C25.3816 38.2812 27.3438 40.2434 27.3438 42.6562C27.3438 45.0691 25.3816 47.0312 22.9688 47.0312C20.5559 47.0312 18.5938 45.0691 18.5938 42.6562C18.5938 40.2434 20.5559 38.2812 22.9688 38.2812Z" fill="black"/>
<path d="M41.5625 14.2188H28.4375V16.4062H41.5625V14.2188Z" fill="black"/>
<path d="M47.0312 18.5938H22.9688V20.7812H47.0312V18.5938Z" fill="black"/>
<path d="M41.5625 22.9688H28.4375V25.1562H41.5625V22.9688Z" fill="black"/>
</svg>
