<svg width="74" height="74" viewBox="0 0 74 74" fill="none" xmlns="http://www.w3.org/2000/svg">
<g opacity="0.7">
<path d="M53.9991 51.9996V26.5003C53.9991 22.9104 51.0892 20.0005 47.4993 20.0005H26.4998C22.9099 20.0005 20 22.9104 20 26.5003V51.9996L21.9999 53.9996L24.9999 50.9997L27.9998 53.9996L30.9997 50.9997L33.9996 53.9996L36.9995 50.9997L39.9995 53.9996L42.9994 50.9997L45.9993 53.9996L48.9992 50.9997L51.9991 53.9996L53.9991 51.9996Z" stroke="black" stroke-width="4" stroke-miterlimit="10" stroke-linecap="round" stroke-linejoin="round"/>
<path d="M28 35.0002H45.9995" stroke="black" stroke-width="4" stroke-miterlimit="10" stroke-linecap="round"/>
<path d="M28 28.0002H36.9998" stroke="black" stroke-width="4" stroke-miterlimit="10" stroke-linecap="round"/>
<path d="M28 42H45.9995" stroke="black" stroke-width="4" stroke-miterlimit="10" stroke-linecap="round"/>
<path d="M2.05591 14.8405L10.9907 13.5815L12.2566 22.5273" stroke="black" stroke-width="4" stroke-miterlimit="10" stroke-linecap="round" stroke-linejoin="round"/>
<path d="M7.56572 55.9284C4.3708 50.9715 2.37986 45.1437 2.04887 38.8319C1.54288 29.1801 4.99679 20.2384 10.9906 13.5815" stroke="black" stroke-width="4" stroke-miterlimit="10" stroke-linecap="round" stroke-linejoin="round"/>
<path d="M14.8408 71.9441L13.5818 63.0094L22.5275 61.7434" stroke="black" stroke-width="4" stroke-miterlimit="10" stroke-linecap="round" stroke-linejoin="round"/>
<path d="M55.9286 66.4344C50.9708 69.6293 45.1439 71.6213 38.8321 71.9513C29.1804 72.4573 20.2376 69.0034 13.5818 63.0095" stroke="black" stroke-width="4" stroke-miterlimit="10" stroke-linecap="round" stroke-linejoin="round"/>
<path d="M71.9439 59.1592L63.0091 60.4182L61.7432 51.4724" stroke="black" stroke-width="4" stroke-miterlimit="10" stroke-linecap="round" stroke-linejoin="round"/>
<path d="M66.4342 18.0713C69.6291 23.0292 71.621 28.856 71.951 35.1678C72.457 44.8196 69.0031 53.7623 63.0093 60.4182" stroke="black" stroke-width="4" stroke-miterlimit="10" stroke-linecap="round" stroke-linejoin="round"/>
<path d="M59.1594 2.05566L60.4184 10.9904L51.4727 12.2564" stroke="black" stroke-width="4" stroke-miterlimit="10" stroke-linecap="round" stroke-linejoin="round"/>
<path d="M18.0715 7.56572C23.0294 4.37081 28.8562 2.37886 35.1681 2.04887C44.8198 1.54288 53.7626 4.99679 60.4184 10.9906" stroke="black" stroke-width="4" stroke-miterlimit="10" stroke-linecap="round" stroke-linejoin="round"/>
</g>
</svg>
