<svg width="70" height="70" viewBox="0 0 70 70" fill="none" xmlns="http://www.w3.org/2000/svg">
<path fill-rule="evenodd" clip-rule="evenodd" d="M52.9595 29.4474C52.6875 29.7102 52.4 29.9513 52.0906 30.1708L52.0662 30.1862C50.8757 31.024 49.4257 31.5157 47.8645 31.5157C47.3238 31.5157 46.7887 31.4539 46.2753 31.3394C45.8954 31.256 45.5272 31.1417 45.175 31.0026C45.0201 31.562 44.9337 32.1526 44.9337 32.7647C44.9337 34.5579 45.6572 36.1811 46.8256 37.3622L46.8472 37.3806C48.0285 38.5617 49.6637 39.2944 51.4664 39.2944C53.2686 39.2944 54.9013 38.5617 56.085 37.3806C57.2664 36.1996 57.9957 34.5672 57.9957 32.7647C57.9957 32.298 57.9496 31.8435 57.8565 31.4074C56.8705 31.3951 55.9338 31.1911 55.0803 30.8263C54.2919 30.4922 53.5781 30.0224 52.9595 29.4474ZM53.5502 28.8011L53.4946 28.8692C54.0449 29.3824 54.688 29.7998 55.3899 30.0997C56.0821 30.3933 56.8398 30.5727 57.6344 30.6096L57.6282 30.5943L57.622 30.5757L57.6094 30.5387L57.6004 30.5171L57.5971 30.5048L57.5448 30.3686L57.5415 30.3657L57.5169 30.2976L57.5136 30.2945L57.4891 30.2296L57.4828 30.2203L57.4517 30.1492L57.4426 30.1276L57.387 30.004L57.3841 29.9947L57.3188 29.8618L57.2847 29.7967L57.2818 29.7906L57.2511 29.7318L57.2448 29.7195C57.1857 29.6049 57.1211 29.4906 57.0528 29.3824L57.05 29.3762C56.7779 28.928 56.4531 28.5135 56.0821 28.1457C55.6494 27.7098 55.1548 27.3389 54.6106 27.0389C54.4742 27.3605 54.317 27.6726 54.1375 27.9663C54.0539 28.1086 53.9614 28.2445 53.8654 28.3837V28.3869L53.7943 28.4857L53.7847 28.498L53.7727 28.5135L53.7633 28.5259L53.7541 28.5413L53.7416 28.5538L53.7326 28.5692L53.7235 28.5815L53.711 28.597L53.7015 28.6093L53.6896 28.6247L53.68 28.6372L53.6708 28.6496L53.6494 28.6774L53.6368 28.6928L53.6278 28.7051L53.6152 28.7206L53.6062 28.733L53.5936 28.7483L53.5846 28.7608L53.5721 28.7732V28.7762L53.563 28.7887L53.5502 28.8011ZM47.3202 42.9146L47.1288 46.603H55.5597L55.4297 42.8125L51.4449 46.3741C51.2996 46.5164 51.0644 46.5165 50.919 46.3773L47.3202 42.9146ZM56.1844 42.692L56.3293 46.9709C56.3356 47.181 56.172 47.3543 55.9618 47.3605L46.7303 47.3634C46.5196 47.3634 46.3498 47.1935 46.3498 46.9832L46.5753 42.658L38.726 46.0773V52.9038H63.9536V46.0773L56.1844 42.692ZM54.2085 39.5539C53.3617 39.8972 52.4341 40.0857 51.4664 40.0857C50.4151 40.0857 49.4194 39.8632 48.5169 39.4675V43.0106L51.191 45.5828L54.2085 42.8837V39.5539ZM13.2847 30.2574C13.6091 30.3872 13.9464 30.4923 14.2957 30.5697C14.7467 30.6717 15.2232 30.7242 15.7144 30.7242C17.1088 30.7242 18.4014 30.2853 19.4617 29.5432L19.4833 29.5278C19.8543 29.265 20.1944 28.9682 20.5005 28.6373L20.5034 28.6343L20.5097 28.6282L20.5126 28.6219L20.5221 28.6127L20.5312 28.6064L20.5436 28.5911L20.5528 28.5818L20.556 28.5757L20.6237 28.4983L20.6271 28.4954L20.6396 28.4861L20.6515 28.4707L20.7168 28.3936L20.7289 28.3781L20.7384 28.3657L20.7447 28.3596L20.7566 28.3442L20.7691 28.3288L20.7753 28.3225L20.7815 28.3133L20.7939 28.2979L20.8064 28.2824L20.8121 28.2763L20.8184 28.267L20.8343 28.2516L20.8462 28.2362V28.2324L20.8586 28.2169L20.871 28.2015L20.8835 28.186L20.8955 28.1706L20.908 28.1521L20.917 28.1398L20.9203 28.1367L20.9327 28.1212L20.9447 28.1058L20.9509 28.0966L20.9572 28.0873L20.9696 28.072C21.0901 27.9081 21.2048 27.738 21.3126 27.5588C21.4427 27.3393 21.5631 27.1136 21.6683 26.8817L21.6744 26.8663L21.7455 26.6992C21.1832 26.4736 20.5801 26.3253 19.9524 26.2633L19.9122 26.2602H19.9059L19.8843 26.2571L19.8349 26.2542L19.8167 26.2512L19.727 26.2449H19.7145H19.7055L19.6805 26.242H19.6743H19.659H19.6374L19.6124 26.2389H19.5971H19.5909H19.5693H19.5569L19.5449 26.2359H19.5233H19.517H19.4983H19.4767H19.455L19.4363 26.2329H19.43H19.4084H19.396H19.384H19.3619H19.3562H19.3375H19.3159H19.2505H19.2323L19.1859 26.2359H19.1488H19.121L19.062 26.2389H19.0562L18.991 26.242H18.9786H18.9728L18.895 26.2449L18.8614 26.248L18.8149 26.251L18.7962 26.254L18.7343 26.2569L18.7314 26.2601L18.6695 26.2632L18.6479 26.2661L18.6047 26.2692L18.5643 26.2754L18.5427 26.2784L18.4842 26.2845H18.4779L18.416 26.2938L18.4035 26.2968L18.3542 26.303L18.3201 26.3061L18.2395 26.3216H18.2275L18.1655 26.3339H18.1594L18.0787 26.3493L18.0418 26.3555L17.9986 26.3648L17.9213 26.3801L17.9181 26.3831C16.6753 26.6523 15.5654 27.2798 14.6998 28.1454C14.0975 28.7456 13.6152 29.4628 13.2847 30.2574ZM20.8097 29.4474C20.5376 29.7102 20.2502 29.9513 19.9407 30.1708L19.9162 30.1862C18.7258 31.024 17.2758 31.5157 15.7144 31.5157C15.1737 31.5157 14.6416 31.4539 14.1253 31.3394C13.7481 31.256 13.3801 31.1417 13.0246 31.0026C12.8701 31.562 12.7867 32.1526 12.7867 32.7647C12.7867 34.5672 13.5165 36.1996 14.6974 37.3806C15.8786 38.5617 17.5139 39.2944 19.3166 39.2944C21.1188 39.2944 22.7545 38.5617 23.9352 37.3806C25.1166 36.1996 25.8492 34.5672 25.8492 32.7647C25.8492 32.298 25.7999 31.8464 25.7068 31.4074C24.7236 31.3951 23.787 31.1911 22.9306 30.8263C22.1454 30.4922 21.428 30.0224 20.8097 29.4474ZM21.3567 28.8568L21.3475 28.8692C21.8978 29.3824 22.5379 29.7998 23.2394 30.0997C23.9323 30.3933 24.6895 30.5727 25.4839 30.6096C25.456 30.5294 25.4254 30.449 25.3947 30.3685V30.3656C25.3448 30.2449 25.2924 30.1213 25.2369 30.0038L25.2335 29.9945L25.2027 29.9327V29.9297C24.8813 29.2619 24.4513 28.6622 23.9351 28.1458C23.4993 27.71 23.0047 27.339 22.4605 27.0391C22.3276 27.3606 22.1669 27.6728 21.9904 27.9664C21.9041 28.1088 21.8143 28.2447 21.7183 28.3839L21.7154 28.387L21.6443 28.4858L21.6348 28.4981L21.6257 28.5136L21.6133 28.526L21.6041 28.5415L21.5951 28.5539L21.5827 28.5694L21.5731 28.5817L21.5641 28.5971L21.5516 28.6094L21.5425 28.6249L21.53 28.6373L21.521 28.6498L21.4994 28.6775L21.4904 28.693L21.4779 28.7053L21.4684 28.7207H21.465L21.4558 28.7332L21.4433 28.7485L21.4342 28.7609L21.4246 28.7734L21.4217 28.7764L21.4122 28.7888L21.4003 28.8011L21.3907 28.8134L21.3691 28.8413L21.3567 28.8568ZM15.1703 42.9146L14.9789 46.603H23.4098L23.2798 42.8125L19.295 46.3741C19.1496 46.5164 18.9179 46.5165 18.7691 46.3773L15.1703 42.9146ZM24.034 42.692L24.1794 46.9709C24.1857 47.181 24.022 47.3543 23.8119 47.3605L14.5798 47.3634C14.3697 47.3634 14.1999 47.1935 14.1999 46.9832L14.4253 42.658L6.57888 46.0773V52.9038H31.8065V46.0773L24.034 42.692ZM22.0586 42.8836V39.5539C21.2117 39.8972 20.2871 40.0857 19.3164 40.0857C18.2681 40.0857 17.2695 39.8632 16.367 39.4645V43.0106L19.0411 45.5828L22.0586 42.8836ZM29.4045 15.1979C29.7289 15.3309 30.0691 15.436 30.4155 15.5133C30.8666 15.6124 31.343 15.6648 31.8342 15.6648C33.2319 15.6648 34.524 15.2289 35.5816 14.4868L35.6032 14.4682C35.9707 14.2086 36.311 13.9119 36.6171 13.584L36.6511 13.547L36.6636 13.5317L36.6727 13.5224L36.6789 13.5162L36.6915 13.5008L36.7039 13.4883L36.7096 13.4792L36.7192 13.4729L36.7318 13.4574L36.7437 13.4421L36.75 13.436L36.7595 13.4267L36.7716 13.4112L36.784 13.3958L36.7873 13.3928L36.7993 13.3803L36.8119 13.3649L36.8243 13.3496L36.8369 13.3343L36.8522 13.3188L36.8613 13.3065L36.8645 13.3034L36.8766 13.2879L36.889 13.2725L36.8953 13.2633L36.9016 13.257L36.914 13.2416L36.9266 13.2231L36.9324 13.217L36.9419 13.2077L36.9538 13.1922L36.9664 13.1768L36.9697 13.1738L36.9787 13.1613L36.9913 13.1459L37.0037 13.1274L37.0158 13.112L37.0282 13.0965L37.0374 13.0842L37.0406 13.0811L37.0531 13.0626L37.0651 13.0471L37.0714 13.0379L37.0777 13.0317L37.0901 13.0131L37.1027 12.9977L37.1056 12.9916L37.1151 12.9823L37.1737 12.8988L37.1862 12.8804L37.1987 12.8649L37.2078 12.8525C37.285 12.738 37.3623 12.6237 37.4333 12.5001C37.5974 12.2281 37.7428 11.9404 37.866 11.6436C37.3037 11.418 36.7006 11.2664 36.0729 11.2045L36.0326 11.2016H36.0297L36.0047 11.1986H35.9957L35.9554 11.1956H35.94L35.8752 11.1894H35.872H35.8474L35.8378 11.1863H35.8259H35.8043H35.798L35.7793 11.1833H35.7577H35.7362L35.7173 11.1803H35.7112H35.6896H35.6771H35.668H35.643H35.6372L35.6215 11.1772H35.5969H35.5754H35.5567H35.5504H35.5288H35.5164H35.5072H35.4822H35.4764H35.4607H35.4361H35.3709H35.3526H35.3061H35.269H35.2411L35.1856 11.1803H35.1765L35.1113 11.1833H35.1021H35.0929L35.0186 11.1896L34.9817 11.1924L34.9352 11.1956H34.9199L34.8545 11.2017H34.8516L34.7897 11.2079H34.7681L34.7279 11.214L34.6876 11.2172L34.6631 11.22L34.604 11.2293H34.6012L34.5364 11.2355L34.5239 11.2386L34.4746 11.2448L34.4434 11.2509C34.3599 11.2634 34.2797 11.2758 34.1991 11.2911L34.1622 11.3003L34.1218 11.3096L34.1002 11.3127L34.0417 11.325H34.0383C32.7957 11.5971 31.6858 12.2218 30.8202 13.0875C30.2207 13.6862 29.7351 14.4034 29.4045 15.1979ZM36.9293 14.391C36.6601 14.6539 36.3699 14.895 36.0605 15.1115L36.0389 15.1269C34.8456 15.9647 33.3957 16.4564 31.8344 16.4564C31.2937 16.4564 30.7616 16.3974 30.2452 16.2831C29.8681 16.1997 29.5 16.0853 29.1479 15.9461C28.99 16.5057 28.9064 17.0962 28.9064 17.7053C28.9064 19.5078 29.6362 21.1432 30.8171 22.3212C31.9983 23.5052 33.6336 24.235 35.4361 24.235C37.2292 24.235 38.8553 23.5113 40.0366 22.3428L40.0549 22.3241C41.2361 21.1401 41.9688 19.5077 41.9688 17.7053C41.9688 17.2414 41.9194 16.7871 41.8263 16.3512C40.8465 16.3389 39.9065 16.1318 39.05 15.7668C38.2652 15.4329 37.5479 14.9661 36.9293 14.391ZM37.6406 13.5935C37.5849 13.6676 37.5264 13.7388 37.4673 13.8099C38.0176 14.323 38.6577 14.7434 39.3592 15.0404C40.055 15.3371 40.8091 15.5133 41.6038 15.5503L41.598 15.5349L41.5917 15.5164L41.5793 15.4822L41.573 15.4608L41.5668 15.4483L41.5543 15.4113L41.5452 15.3835L41.5424 15.3774L41.5266 15.3432L41.5145 15.3124V15.3093L41.5019 15.2753L41.4866 15.2412V15.2383L41.4588 15.1734L41.4556 15.1641L41.443 15.1392L41.4311 15.1053L41.4248 15.0899L41.4152 15.0711L41.3908 15.0186L41.3845 15.0033L41.3691 14.9693L41.3596 14.9445L41.3533 14.9352L41.338 14.9043L41.3227 14.8733V14.8703L41.3074 14.8364L41.2886 14.8054V14.8022L41.2733 14.7712L41.258 14.7373L41.2547 14.7311L41.2394 14.7062L41.2241 14.6723L41.2178 14.663C41.1809 14.5919 41.1434 14.5238 41.1036 14.4558L41.1004 14.4497L41.0633 14.3878V14.3849L41.026 14.323L41.0231 14.32L40.9891 14.2612L40.9828 14.2519L40.9397 14.187L40.9307 14.1684C40.6769 13.7789 40.3831 13.4171 40.0556 13.0865C39.6227 12.6535 39.125 12.2796 38.5839 11.9796C38.4482 12.3041 38.2874 12.6133 38.1107 12.907C38.0369 13.0306 37.9597 13.1482 37.8791 13.2656L37.8763 13.2718L37.8172 13.3553L37.8082 13.3708L37.799 13.3831L37.7866 13.3985L37.777 13.4108L37.768 13.4263L37.759 13.4387L37.7555 13.4417L37.7465 13.4542L37.7375 13.4695L37.7249 13.4819L37.7159 13.4944V13.4974L37.7063 13.5098L37.6939 13.5253L37.6849 13.5376L37.6723 13.5529L37.6632 13.5653L37.6507 13.5808L37.6406 13.5935ZM31.2902 27.855L31.0988 31.5434H39.5297L39.403 27.753L35.4148 31.3178C35.2694 31.457 35.0377 31.46 34.889 31.3178L31.2902 27.855ZM40.1537 27.6326L40.299 31.9143C40.3053 32.1216 40.1417 32.2978 39.9344 32.304H30.6995C30.4926 32.304 30.3224 32.1339 30.3224 31.9238L30.545 27.5984L25.9292 29.6113C26.3837 30.5664 26.6403 31.6363 26.6403 32.7646C26.6403 34.7372 25.8581 36.5272 24.5876 37.8441H46.195C44.9244 36.5271 44.1419 34.737 44.1419 32.7646C44.1419 31.6577 44.3895 30.6096 44.8284 29.67L40.1537 27.6326ZM38.1817 27.8273V24.4945C37.3343 24.8376 36.4069 25.0264 35.4361 25.0264C34.3879 25.0264 33.3893 24.807 32.4868 24.4081V27.951L35.1642 30.5265L38.1817 27.8273ZM6.242 56.2891C6.03474 56.2891 5.86151 56.119 5.86151 55.9089C5.86151 55.6985 6.03474 55.5287 6.242 55.5287H47.9359C48.1427 55.5287 48.3158 55.6985 48.3158 55.9089C48.3158 56.119 48.1426 56.2891 47.9359 56.2891H6.242ZM30.6564 58.8241C30.4463 58.8241 30.2765 58.6541 30.2765 58.4439C30.2765 58.2367 30.4463 58.0637 30.6564 58.0637H59.5076C59.7149 58.0637 59.8881 58.2368 59.8881 58.4439C59.8881 58.6541 59.7148 58.8241 59.5076 58.8241H30.6564ZM62.4605 58.8241C62.2503 58.8241 62.08 58.6541 62.08 58.4439C62.08 58.2367 62.2503 58.0637 62.4605 58.0637H66.0652C66.2753 58.0637 66.4453 58.2368 66.4453 58.4439C66.4453 58.6541 66.2753 58.8241 66.0652 58.8241H62.4605ZM4.60001 58.75C4.38987 58.75 4.22007 58.5768 4.22007 58.3698C4.22007 58.1594 4.38987 57.9893 4.60001 57.9893H18.2713C18.4815 57.9893 18.6514 58.1594 18.6514 58.3698C18.6514 58.577 18.4815 58.75 18.2713 58.75H4.60001ZM4.3155 51.0115C4.3155 51.2218 4.14269 51.3917 3.93542 51.3917C3.72528 51.3917 3.55493 51.2218 3.55493 51.0115V44.0831C3.55493 43.9162 3.66335 43.7739 3.81155 43.7245L11.3643 40.5927C11.5563 40.5123 11.7788 40.6051 11.859 40.7967C11.9396 40.9915 11.8465 41.2142 11.6551 41.2913L4.31536 44.3366V51.0115H4.3155ZM45.4346 30.2574C45.7589 30.3872 46.0962 30.4923 46.4422 30.5697C46.897 30.6717 47.3696 30.7242 47.8644 30.7242C49.2586 30.7242 50.5512 30.2853 51.6116 29.5432L51.6332 29.5278C52.0011 29.265 52.3442 28.9682 52.6504 28.6373V28.6343L52.6566 28.6282L52.6624 28.6219L52.6718 28.6127L52.6783 28.6064L52.6934 28.5911L52.6997 28.5818L52.706 28.5757L52.718 28.5602L52.7338 28.5448L52.74 28.5386L52.7458 28.5293L52.7615 28.5139L52.7735 28.4984L52.777 28.4956L52.786 28.4863L52.7986 28.4708L52.8137 28.4556V28.4525L52.8263 28.4402L52.8388 28.4247L52.8512 28.4093L52.8666 28.3938L52.8791 28.3784L52.8882 28.3659L52.8911 28.3599L52.9036 28.3445L52.919 28.329L52.9252 28.3227L52.9315 28.3136L52.9439 28.2981L52.9565 28.2827L52.9626 28.2765L52.9685 28.2672L52.9809 28.2519L52.9934 28.2365L52.9963 28.2335L53.0058 28.218L53.0179 28.2026L53.0303 28.1871L53.0427 28.1717L53.0553 28.1532L53.0679 28.1409L53.0708 28.1378L53.0799 28.1223L53.0924 28.1069L53.1014 28.0977L53.1047 28.0884L53.1173 28.0731C53.2404 27.9092 53.3551 27.7391 53.4603 27.5598C53.5932 27.3404 53.7108 27.1147 53.8188 26.8828L53.8249 26.8674L53.896 26.7003C53.3337 26.4747 52.7306 26.3264 52.1029 26.2644L52.0626 26.2613H52.057L52.0349 26.2581L51.9825 26.2553L51.9673 26.2523L51.8776 26.246H51.8651H51.856L51.831 26.2431H51.8247H51.8094H51.7879H51.7851L51.7629 26.24H51.7447H51.7415H51.717H51.7074L51.6954 26.237H51.6738H51.6676H51.6488H51.6273H51.6057L51.587 26.2339H51.5807H51.5591H51.5466H51.5346H51.513H51.5068H51.4881H51.4665H51.4016H51.3828L51.3364 26.237H51.2966H51.2714L51.2129 26.24H51.2067L51.1413 26.2431H51.1294H51.1231L51.046 26.246L51.0118 26.2491L50.9624 26.2521L50.9467 26.2551L50.8818 26.258V26.2612L50.82 26.2643L50.7984 26.2672L50.7553 26.2703L50.715 26.2765L50.6934 26.2795L50.6349 26.2856H50.6286L50.5668 26.2949L50.5513 26.2979L50.502 26.3041L50.4707 26.3072L50.3905 26.3227H50.3781L50.3163 26.335H50.3099L50.2298 26.3504L50.1924 26.3566L50.1494 26.3659L50.075 26.3812H50.0687V26.3842H50.063C48.8232 26.6563 47.7133 27.2809 46.8472 28.1465C46.2474 28.7456 45.7652 29.4628 45.4346 30.2574Z" fill="black"/>
</svg>
