<svg width="70" height="70" viewBox="0 0 70 70" fill="none" xmlns="http://www.w3.org/2000/svg">
<path d="M49.5834 17.4999V47.4811L53.9584 51.8883L58.3334 47.4811V17.4999H49.5834ZM49.5834 14.5833H58.3334V8.79285H49.5834V14.5833ZM61.2501 20.4166V48.082C61.2501 48.4669 61.0979 48.8362 60.8267 49.1094L54.9934 54.9857C54.423 55.5602 53.4938 55.5602 52.9234 54.9857L47.0901 49.1094C46.8189 48.8362 46.6667 48.4669 46.6667 48.082V40.8333H45.2084C42.7922 40.8333 40.8334 38.8745 40.8334 36.4583V27.7083C40.8334 25.292 42.7922 23.3333 45.2084 23.3333H46.6667V20.4166H17.5001V42.2916C17.5001 43.097 16.8472 43.7499 16.0417 43.7499H14.5834C9.75092 43.7499 5.83341 47.6674 5.83341 52.4999C5.83341 57.3324 9.75092 61.2499 14.5834 61.2499H64.1667V20.4166H61.2501ZM61.2501 17.4999H65.6251C66.4305 17.4999 67.0834 18.1528 67.0834 18.9583V62.7082C67.0834 63.5137 66.4305 64.1666 65.6251 64.1666H14.5834C8.14009 64.1666 2.91675 58.9432 2.91675 52.4999V18.9583C2.91675 11.7095 8.79301 5.83325 16.0417 5.83325C16.8472 5.83325 17.5001 6.48617 17.5001 7.29159V17.4999H46.6667V7.33451C46.6667 6.5291 47.3197 5.87618 48.1251 5.87618H59.7917C60.5972 5.87618 61.2501 6.5291 61.2501 7.33451V17.4999ZM46.6667 26.2499H45.2084C44.403 26.2499 43.7501 26.9028 43.7501 27.7083V36.4583C43.7501 37.2637 44.403 37.9166 45.2084 37.9166H46.6667V26.2499ZM5.83341 44.7829C7.97117 42.3609 11.0989 40.8333 14.5834 40.8333V8.8533C9.63632 9.56092 5.83341 13.8155 5.83341 18.9583V44.7829ZM24.7917 23.3333H33.5417C35.958 23.3333 37.9167 25.292 37.9167 27.7083V36.4583C37.9167 38.8745 35.958 40.8333 33.5417 40.8333H24.7917C22.3755 40.8333 20.4167 38.8745 20.4167 36.4583V27.7083C20.4167 25.292 22.3755 23.3333 24.7917 23.3333ZM24.7917 26.2499C23.9863 26.2499 23.3334 26.9028 23.3334 27.7083V36.4583C23.3334 37.2637 23.9863 37.9166 24.7917 37.9166H33.5417C34.3472 37.9166 35.0001 37.2637 35.0001 36.4583V27.7083C35.0001 26.9028 34.3472 26.2499 33.5417 26.2499H24.7917ZM21.8751 49.5832C21.0697 49.5832 20.4167 48.9303 20.4167 48.1249C20.4167 47.3195 21.0697 46.6666 21.8751 46.6666H42.2917C43.0972 46.6666 43.7501 47.3195 43.7501 48.1249C43.7501 48.9303 43.0972 49.5832 42.2917 49.5832H21.8751ZM21.8751 55.4166C21.0697 55.4166 20.4167 54.7637 20.4167 53.9582C20.4167 53.1528 21.0697 52.4999 21.8751 52.4999H45.2084C46.0138 52.4999 46.6667 53.1528 46.6667 53.9582C46.6667 54.7637 46.0138 55.4166 45.2084 55.4166H21.8751Z" fill="black"/>
</svg>
