<svg width="200" height="200" viewBox="0 0 200 200" fill="none" xmlns="http://www.w3.org/2000/svg">
<g clip-path="url(#clip0_25_303)">
<path d="M153.462 94.0976L72.0775 47.1055C69.921 45.8568 67.4235 45.8568 65.267 47.1055C63.1105 48.3542 61.8618 50.6241 61.8618 53.0077V146.879C61.8618 149.262 63.1105 151.532 65.267 152.781C66.2886 153.348 67.5373 153.689 68.6723 153.689C69.8072 153.689 71.0559 153.348 72.0775 152.781L153.349 105.789C155.505 104.54 156.754 102.27 156.754 99.8864C156.754 97.5028 155.505 95.3463 153.462 94.0976ZM75.4827 135.187V64.8126L136.323 99.9998L75.4827 135.187Z" fill="black"/>
<path d="M100 0C44.8356 0 0 44.8356 0 100C0 155.165 44.8356 200 100 200C155.165 200 200 155.165 200 100C200 44.8356 155.165 0 100 0ZM100 186.379C52.3271 186.379 13.6209 147.673 13.6209 99.9998C13.6209 52.3267 52.3271 13.6209 100 13.6209C147.673 13.6209 186.38 52.3271 186.38 100C186.38 147.673 147.673 186.379 100 186.379Z" fill="black"/>
</g>
<defs>
<clipPath id="clip0_25_303">
<rect width="200" height="200" fill="white"/>
</clipPath>
</defs>
</svg>
