<svg width="70" height="70" viewBox="0 0 70 70" fill="none" xmlns="http://www.w3.org/2000/svg">
<path d="M66.2515 43.6866C62.5628 42.1372 59.2426 39.9307 56.3838 37.1304C54.6446 35.4253 51.6495 35.4253 49.9046 37.1304C49.0609 37.957 48.1654 38.7147 47.2438 39.4359C45.8736 38.8737 38.1264 37.1077 37.2472 36.8351C35.5047 36.2932 34.0867 34.9669 33.4085 33.2998C38.7853 30.9611 41.6352 24.9167 42.0893 18.8391V17.929H44.3746C45.0634 17.929 45.6207 17.3709 45.6207 16.6829C45.6207 15.9949 45.0634 15.4369 44.3746 15.4369H42.8171L42.6443 13.6847C42.2362 9.56041 39.4052 6.13547 35.4317 4.9575L33.1602 4.28416V3.43404C33.1602 2.74607 32.603 2.18799 31.9142 2.18799H24.8225C24.1353 2.18799 23.578 2.74443 23.5764 3.43076L23.5748 4.27609L21.2514 4.96557C17.2942 6.13861 14.4655 9.54893 14.0437 13.6505L13.8595 15.4369H12.3337C11.6458 15.4369 11.0877 15.9949 11.0877 16.6829C11.0877 17.3709 11.6458 17.929 12.3337 17.929H14.6782L14.6798 18.9333C15.1292 24.9007 17.9466 30.8939 23.2617 33.2587C22.5908 34.9614 21.2385 36.2886 19.4571 36.8387C17.9433 37.306 12.0669 38.5925 12.0669 38.5925C12.066 38.5925 12.0652 38.5925 12.0652 38.5925C11.2533 38.7726 4.10874 40.5135 3.2846 46.2861C2.78736 49.758 2.20726 53.0532 2.20644 53.0598C2.14232 53.4216 2.24294 53.7948 2.47906 54.0771C2.71599 54.3594 3.06558 54.5217 3.4339 54.5217H41.6099C43.023 57.348 44.7258 60.0267 46.7247 62.5252L49.5891 66.1044C50.4571 67.1898 51.7535 67.8129 53.1439 67.8129C54.5351 67.8129 55.8307 67.1898 56.6995 66.1044L59.5656 62.5221C63.3207 57.8268 66.0626 52.5148 67.7143 46.7341C68.0686 45.4941 67.4392 44.1847 66.2515 43.6866ZM44.751 41.1962C43.2543 42.1477 41.6886 42.9931 40.0354 43.6866C39.5625 43.8862 39.2113 44.2358 38.9428 44.6366L40.0517 40.1205C40.1683 40.1481 44.3559 41.0786 44.751 41.1962ZM34.7235 7.34557C37.7209 8.23465 39.856 10.8192 40.1643 13.931L40.3136 15.4367H33.1602V6.88236L34.7235 7.34557ZM30.6681 4.67996V15.4367H26.0425L26.066 4.67996H30.6681ZM16.5229 13.9067C16.841 10.8111 18.9753 8.23957 21.9605 7.35363L23.5692 6.87662L23.5506 15.4366H16.3656L16.5229 13.9067ZM17.1687 18.839V17.9288H39.5989L39.6005 18.7449C39.1105 25.2606 35.4519 31.8331 28.383 31.8331C21.3141 31.8331 17.6554 25.2605 17.1687 18.839ZM28.3829 34.3251C29.319 34.3251 30.1967 34.2189 31.0348 34.0477C31.4891 35.2531 32.1973 36.3175 33.1002 37.188L28.4162 40.9918L23.6568 37.1474C24.5394 36.2818 25.2297 35.2288 25.6727 34.038C26.5277 34.2164 27.4249 34.3251 28.3829 34.3251ZM16.6649 40.1213L19.6956 52.0292H11.8V41.2465C12.2446 41.1094 15.551 40.3785 16.6649 40.1213ZM5.75074 46.6395C6.05001 44.5466 7.70089 43.1569 9.30788 42.2832V52.0292H4.91033C5.12771 50.7231 5.45542 48.7048 5.75074 46.6395ZM22.2672 52.0292L19.0856 39.5292C19.4944 39.4221 21.1176 38.8737 21.5526 38.6531L27.6359 43.565C27.8638 43.7483 28.1413 43.8407 28.4187 43.8407C28.6969 43.8407 28.9751 43.7483 29.204 43.5617L35.2143 38.6814C35.6288 38.8874 37.2172 39.4188 37.631 39.5267L34.5622 52.0292H22.2672ZM37.128 52.0292C37.128 52.0292 38.533 46.5916 38.5743 46.7352C39.0927 48.5499 39.7311 50.3119 40.4612 52.0292H37.128ZM57.6194 60.9639L54.7533 64.5462C53.9672 65.5294 52.3212 65.5294 51.5344 64.5462L48.6709 60.9671C45.1226 56.533 42.5315 51.5131 41.0016 45.9838C46.4161 43.784 50.6243 39.9143 51.6497 38.91C52.052 38.5157 52.5826 38.2983 53.1455 38.2983C53.7069 38.2983 54.2374 38.5157 54.639 38.91C57.7249 41.9309 61.3064 44.311 65.3172 46.0504C63.7569 51.5116 61.1668 56.5282 57.6194 60.9639Z" fill="black"/>
<path d="M49.172 50.6322C48.6853 50.1455 47.8968 50.1455 47.41 50.6322C46.9232 51.1189 46.9232 51.9074 47.41 52.3943L50.7644 55.7478C51.0426 56.0285 51.4142 56.1826 51.8092 56.1826C52.2043 56.1826 52.5749 56.0285 52.8508 55.751L59.7259 48.8751C60.2126 48.3884 60.2126 47.5999 59.7259 47.1131C59.24 46.6264 58.4507 46.6264 57.9638 47.1131L51.8092 53.2686L49.172 50.6322Z" fill="black"/>
</svg>
