<svg width="50" height="50" viewBox="0 0 50 50" fill="none" xmlns="http://www.w3.org/2000/svg">
<g clip-path="url(#clip0_30_192)">
<path fill-rule="evenodd" clip-rule="evenodd" d="M0 26.0417C0 11.6593 11.1929 0 25 0C38.8071 0 50 11.6593 50 26.0417C50 40.424 38.8071 52.0833 25 52.0833C11.1929 52.0833 0 40.424 0 26.0417ZM26.3078 34.5878C26.3078 34.5878 26.7891 34.5331 27.0355 34.2624C27.2611 34.0143 27.2533 33.5462 27.2533 33.5462C27.2533 33.5462 27.2233 31.3605 28.2159 31.0377C29.1942 30.7203 30.4501 33.1515 31.7831 34.0864C32.79 34.7932 33.5543 34.6385 33.5543 34.6385L37.1162 34.5878C37.1162 34.5878 38.9787 34.4704 38.0957 32.9728C38.0227 32.85 37.5805 31.8646 35.4481 29.8401C33.2139 27.721 33.5139 28.0637 36.2032 24.3977C37.8415 22.1651 38.4961 20.8022 38.2914 20.2195C38.0971 19.662 36.8919 19.81 36.8919 19.81L32.8826 19.8354C32.8826 19.8354 32.5852 19.7941 32.3648 19.9287C32.1496 20.0608 32.01 20.3688 32.01 20.3688C32.01 20.3688 31.3761 22.0958 30.5297 23.5654C28.7442 26.6648 28.0307 26.8288 27.7385 26.6368C27.0591 26.1874 27.2285 24.8338 27.2285 23.8722C27.2285 20.8676 27.6747 19.6153 26.3612 19.2912C25.9256 19.1833 25.6048 19.1125 24.4896 19.1006C23.0589 19.0859 21.8484 19.1059 21.1624 19.4487C20.7059 19.6767 20.3538 20.1861 20.569 20.2155C20.8337 20.2514 21.4338 20.3809 21.752 20.8236C22.1628 21.3957 22.1484 22.6786 22.1484 22.6786C22.1484 22.6786 22.3846 26.2154 21.5968 26.6541C21.0568 26.9555 20.3159 26.3407 18.7234 23.5281C17.9083 22.0879 17.2927 20.4956 17.2927 20.4956C17.2927 20.4956 17.174 20.1981 16.9614 20.0381C16.7045 19.8447 16.3457 19.7847 16.3457 19.7847L12.536 19.81C12.536 19.81 11.9634 19.8261 11.7534 20.0807C11.567 20.3061 11.7391 20.7742 11.7391 20.7742C11.7391 20.7742 14.722 27.9104 18.1 31.5072C21.1976 34.8038 24.714 34.5878 24.714 34.5878H26.3078Z" fill="black"/>
</g>
<defs>
<clipPath id="clip0_30_192">
<rect width="50" height="50" fill="white"/>
</clipPath>
</defs>
</svg>
