<svg width="31" height="30" viewBox="0 0 31 30" fill="none" xmlns="http://www.w3.org/2000/svg">
<g clip-path="url(#clip0_223_151)">
<path d="M15.5 0.46875C7.47219 0.46875 0.96875 6.97312 0.96875 15C0.96875 23.0269 7.47312 29.5312 15.5 29.5312C23.5278 29.5312 30.0312 23.0269 30.0312 15C30.0312 6.97312 23.5269 0.46875 15.5 0.46875ZM22.6372 10.4241L20.2522 21.6628C20.0759 22.4597 19.6016 22.6528 18.9397 22.2778L15.3069 19.6003L13.5547 21.2878C13.3616 21.4809 13.1975 21.645 12.8225 21.645L13.0803 17.9475L19.8125 11.865C20.1059 11.6072 19.7478 11.4609 19.3606 11.7188L11.0403 16.9566L7.45438 15.8372C6.67531 15.5916 6.6575 15.0581 7.61844 14.6831L21.6284 9.28031C22.2791 9.04594 22.8472 9.43875 22.6362 10.4231L22.6372 10.4241Z" fill="black"/>
</g>
<defs>
<clipPath id="clip0_223_151">
<rect width="30" height="30" fill="white" transform="translate(0.5)"/>
</clipPath>
</defs>
</svg>
