<svg width="31" height="30" viewBox="0 0 31 30" fill="none" xmlns="http://www.w3.org/2000/svg">
<g clip-path="url(#clip0_223_155)">
<path fill-rule="evenodd" clip-rule="evenodd" d="M0.5 15C0.5 6.71575 7.21575 0 15.5 0C23.7843 0 30.5 6.71575 30.5 15C30.5 23.2843 23.7843 30 15.5 30C7.21575 30 0.5 23.2843 0.5 15ZM15.5007 7C13.3281 7 13.0554 7.0095 12.2021 7.04831C11.3504 7.08731 10.7691 7.22219 10.2604 7.42C9.73419 7.62431 9.28788 7.89769 8.84319 8.3425C8.39819 8.78719 8.12481 9.2335 7.91981 9.7595C7.7215 10.2684 7.5865 10.8499 7.54819 11.7012C7.51 12.5546 7.5 12.8274 7.5 15.0001C7.5 17.1727 7.50969 17.4446 7.54831 18.2979C7.5875 19.1496 7.72231 19.7309 7.92 20.2396C8.1245 20.7658 8.39781 21.2121 8.84269 21.6568C9.28719 22.1018 9.7335 22.3758 10.2594 22.5802C10.7684 22.778 11.3499 22.9128 12.2014 22.9518C13.0548 22.9907 13.3272 23.0002 15.4998 23.0002C17.6726 23.0002 17.9444 22.9907 18.7978 22.9518C19.6494 22.9128 20.2314 22.778 20.7405 22.5802C21.2665 22.3758 21.7121 22.1018 22.1566 21.6568C22.6016 21.2121 22.875 20.7658 23.08 20.2398C23.2767 19.7309 23.4117 19.1494 23.4517 18.2981C23.49 17.4447 23.5 17.1727 23.5 15.0001C23.5 12.8274 23.49 12.5548 23.4517 11.7014C23.4117 10.8497 23.2767 10.2684 23.08 9.75969C22.875 9.2335 22.6016 8.78719 22.1566 8.3425C21.7116 7.8975 21.2666 7.62419 20.74 7.42C20.2299 7.22219 19.6483 7.08731 18.7966 7.04831C17.9432 7.0095 17.6716 7 15.4983 7H15.5007Z" fill="black"/>
<path fill-rule="evenodd" clip-rule="evenodd" d="M14.7831 8.44145C14.9961 8.44114 15.2338 8.44145 15.5008 8.44145C17.6368 8.44145 17.8899 8.44914 18.7334 8.48745C19.5134 8.52314 19.9368 8.65345 20.2188 8.76295C20.5921 8.90795 20.8583 9.08127 21.1381 9.36127C21.4181 9.64127 21.5915 9.90795 21.7368 10.2813C21.8463 10.563 21.9768 10.9863 22.0123 11.7663C22.0506 12.6096 22.059 12.863 22.059 14.998C22.059 17.133 22.0506 17.3864 22.0123 18.2297C21.9766 19.0097 21.8463 19.4331 21.7368 19.7147C21.5918 20.0881 21.4181 20.3539 21.1381 20.6338C20.8581 20.9138 20.5923 21.0871 20.2188 21.2321C19.9371 21.3421 19.5134 21.4721 18.7334 21.5078C17.8901 21.5461 17.6368 21.5544 15.5008 21.5544C13.3646 21.5544 13.1114 21.5461 12.2681 21.5078C11.4881 21.4718 11.0647 21.3414 10.7826 21.2319C10.4092 21.0869 10.1425 20.9136 9.86251 20.6336C9.58251 20.3536 9.4092 20.0876 9.26388 19.7141C9.15438 19.4324 9.02388 19.0091 8.98838 18.2291C8.95001 17.3857 8.94238 17.1324 8.94238 14.996C8.94238 12.8596 8.95001 12.6076 8.98838 11.7643C9.02401 10.9843 9.15438 10.561 9.26388 10.279C9.40888 9.90564 9.58251 9.63895 9.86251 9.35895C10.1425 9.07895 10.4092 8.90564 10.7826 8.76027C11.0646 8.65027 11.4881 8.52027 12.2681 8.48445C13.0061 8.45114 13.2921 8.44114 14.7831 8.43945V8.44145ZM19.7711 9.76977C19.2411 9.76977 18.8111 10.1993 18.8111 10.7295C18.8111 11.2595 19.2411 11.6895 19.7711 11.6895C20.3011 11.6895 20.7311 11.2595 20.7311 10.7295C20.7311 10.1995 20.3011 9.76977 19.7711 9.76977ZM15.5008 10.8915C13.2319 10.8915 11.3924 12.731 11.3924 14.9998C11.3924 17.2687 13.2319 19.1074 15.5008 19.1074C17.7696 19.1074 19.6084 17.2687 19.6084 14.9998C19.6084 12.731 17.7696 10.8915 15.5008 10.8915Z" fill="black"/>
<path fill-rule="evenodd" clip-rule="evenodd" d="M15.5007 12.3335C16.9734 12.3335 18.1674 13.5274 18.1674 15.0002C18.1674 16.4729 16.9734 17.6669 15.5007 17.6669C14.0278 17.6669 12.834 16.4729 12.834 15.0002C12.834 13.5274 14.0278 12.3335 15.5007 12.3335Z" fill="black"/>
</g>
<defs>
<clipPath id="clip0_223_155">
<rect width="30" height="30" fill="white" transform="translate(0.5)"/>
</clipPath>
</defs>
</svg>
