<svg width="31" height="30" viewBox="0 0 31 30" fill="none" xmlns="http://www.w3.org/2000/svg">
<path fill-rule="evenodd" clip-rule="evenodd" d="M0.5 15C0.5 6.71575 7.21575 0 15.5 0C23.7843 0 30.5 6.71575 30.5 15C30.5 23.2843 23.7843 30 15.5 30C7.21575 30 0.5 23.2843 0.5 15ZM16.2847 19.9226C16.2847 19.9226 16.5734 19.8911 16.7213 19.7351C16.8567 19.5923 16.852 19.3226 16.852 19.3226C16.852 19.3226 16.834 18.0636 17.4296 17.8777C18.0165 17.6949 18.7701 19.0952 19.5699 19.6337C20.174 20.0409 20.6326 19.9517 20.6326 19.9517L22.7697 19.9226C22.7697 19.9226 23.8872 19.8549 23.3574 18.9923C23.3136 18.9216 23.0483 18.354 21.7689 17.1879C20.4283 15.9673 20.6083 16.1647 22.2219 14.0531C23.2049 12.7671 23.5977 11.9821 23.4748 11.6464C23.3582 11.3253 22.6351 11.4106 22.6351 11.4106L20.2296 11.4252C20.2296 11.4252 20.0511 11.4014 19.9189 11.4789C19.7897 11.555 19.706 11.7324 19.706 11.7324C19.706 11.7324 19.3257 12.7272 18.8178 13.5737C17.7465 15.3589 17.3184 15.4534 17.1431 15.3428C16.7354 15.0839 16.8371 14.3043 16.8371 13.7504C16.8371 12.0198 17.1048 11.2984 16.3168 11.1117C16.0554 11.0496 15.8629 11.0088 15.1938 11.0019C14.3353 10.9935 13.6091 11.005 13.1974 11.2024C12.9236 11.3338 12.7123 11.6272 12.8414 11.6441C13.0003 11.6648 13.3603 11.7394 13.5512 11.9944C13.7977 12.3239 13.7891 13.0629 13.7891 13.0629C13.7891 13.0629 13.9307 15.1001 13.4581 15.3527C13.1341 15.5264 12.6896 15.1722 11.7341 13.5522C11.245 12.7226 10.8756 11.8054 10.8756 11.8054C10.8756 11.8054 10.8044 11.6341 10.6768 11.5419C10.5227 11.4306 10.3074 11.396 10.3074 11.396L8.02163 11.4106C8.02163 11.4106 7.67806 11.4198 7.55206 11.5665C7.44019 11.6963 7.54344 11.9659 7.54344 11.9659C7.54344 11.9659 9.33319 16.0764 11.36 18.1481C13.2186 20.047 15.3284 19.9226 15.3284 19.9226H16.2847Z" fill="black"/>
</svg>
